Coordinates
version=1
nRows=14
nColumns=36
inDegrees=yes

Units are S.I. units (second, meters, Newtons, ...)
If the header above contains a line with 'inDegrees', this indicates whether rotational values are in degrees (yes) or radians (no).

endheader
time	pelvis_tilt	pelvis_list	pelvis_rotation	pelvis_tx	pelvis_ty	pelvis_tz	hip_flexion_r	hip_adduction_r	hip_rotation_r	knee_angle_r	knee_angle_r_beta	ankle_angle_r	subtalar_angle_r	mtp_angle_r	hip_flexion_l	hip_adduction_l	hip_rotation_l	knee_angle_l	knee_angle_l_beta	ankle_angle_l	subtalar_angle_l	mtp_angle_l	lumbar_extension	lumbar_bending	lumbar_rotation	arm_flex_r	arm_add_r	arm_rot_r	elbow_flex_r	pro_sup_r	arm_flex_l	arm_add_l	arm_rot_l	elbow_flex_l	pro_sup_l
      4.15416670	     -8.43402648	      1.11885315	     -0.07946386	      0.36284656	      0.98785755	     -0.05639625	     12.29505973	    -12.81438401	     -9.00699099	      6.58352613	      0.11490421	     -1.04070843	     -5.32627348	     -7.49999987	     15.29262518	     -8.86194524	     -7.65894222	      9.97130363	      0.17403208	     -2.06325456	     -6.94717787	     -7.49999987	     -6.64207281	      0.25764518	     -1.53291282	      3.47438340	    -15.22470966	      3.09555579	     44.58783244	     71.94611480	      3.02128167	    -18.99236561	     24.25048504	     64.23755242	     82.86587254
      4.15833330	     -8.33100945	      1.13941065	     -0.13133529	      0.36294255	      0.98673824	     -0.05691687	     11.90957725	    -12.73848573	     -9.07588075	      6.00561492	      0.10481775	     -1.11814078	     -5.41138816	     -7.49999987	     14.88548992	     -8.76962978	     -7.59758719	      9.40443366	      0.16413833	     -2.21829637	     -6.98757595	     -7.49999987	     -6.72283333	      0.15304984	     -1.49328205	      3.66278146	    -15.14107527	      2.99281782	     44.76409493	     71.32088270	      3.24111729	    -18.94635847	     24.30936149	     64.32330602	     81.90432573
      4.16250000	     -8.68115941	      1.10805356	     -0.19521490	      0.36641999	      0.97952527	     -0.05423422	     12.03953087	    -12.55058206	     -8.85785115	      5.65810687	      0.09875259	     -0.77241416	     -5.79863284	     -7.49999987	     14.95077378	     -8.82490204	     -7.45143394	      8.97992337	      0.15672923	     -1.91872426	     -7.10925697	     -7.49999987	     -5.99387269	      0.09751975	     -1.36624829	      3.35148773	    -15.13486743	      3.01186385	     45.21568364	     70.86211756	      3.10506109	    -18.96734942	     24.40696306	     64.62820385	     81.05741722
      4.16666670	     -8.12160905	      1.06529672	     -0.28702121	      0.36658454	      0.98341065	     -0.05355477	     11.08029799	    -12.34608736	     -8.84209732	      5.12369595	      0.08942536	     -0.94953729	     -6.17574172	     -7.49999987	     13.99647360	     -8.88167198	     -7.52499895	      8.43096825	      0.14714816	     -2.06294483	     -7.19817409	     -7.49999987	     -6.50087333	     -0.00680566	     -1.23699659	      3.93842439	    -15.05425213	      3.45841461	     44.42490619	     70.35147293	      3.77459316	    -19.17531944	     25.53448290	     64.40650981	     80.40292141
      4.17083330	     -7.96741202	      1.03345418	     -0.33263592	      0.36609141	      0.98199237	     -0.05372393	     10.61197929	    -12.19084400	     -8.84295502	      4.64367038	      0.08104734	     -0.77267542	     -6.37087468	     -7.49999987	     13.56801189	     -8.92449715	     -7.51811303	      7.99891797	      0.13960746	     -2.06426087	     -7.31993155	     -7.49999987	     -6.52163375	     -0.06499172	     -1.19284423	      4.07699234	    -14.95994972	      3.38668115	     44.49496232	     70.38973936	      3.95560193	    -19.13071673	     25.47449978	     64.38111721	     80.52114030
      4.17500000	     -7.99435371	      0.99669793	     -0.34402173	      0.36788044	      0.97839406	     -0.05604392	     10.42011237	    -12.12283580	     -8.87275594	      4.38984713	      0.07661729	     -0.68175626	     -6.57101182	     -7.49999987	     13.36739557	     -8.90596699	     -7.61166496	      7.70264072	      0.13443644	     -1.96132243	     -7.43121813	     -7.49999987	     -6.26476870	     -0.00696603	     -1.22484299	      4.16782069	    -14.99106389	      3.36312360	     44.58173028	     70.44535901	      3.97089059	    -19.05793529	     25.55980328	     64.39659499	     80.63458204
      4.17916670	     -7.96747333	      1.01017058	     -0.38219733	      0.36692662	      0.98147641	     -0.05328688	     10.10710019	    -12.02274850	     -8.82065050	      3.93853681	      0.06874044	     -0.66014080	     -6.77535797	     -7.49999987	     13.08343914	     -8.88381350	     -7.62724066	      7.27811734	      0.12702711	     -2.05101613	     -7.52746441	     -7.49999987	     -6.13841969	     -0.07730248	     -1.19996193	      4.30265214	    -14.90415540	      3.33911131	     44.59962604	     70.52502197	      4.15186978	    -19.04766703	     25.64985422	     64.35255547	     80.80397563
      4.18333330	     -7.78750783	      1.01403186	     -0.39719653	      0.36801787	      0.98151820	     -0.05422454	      9.61479335	    -11.94356409	     -8.68390087	      3.46724323	      0.06051481	     -0.92745030	     -7.23552400	     -7.49999987	     12.63561119	     -8.83781731	     -7.55798429	      6.85577802	      0.11965590	     -2.22475093	     -7.75462646	     -7.49999987	     -6.25147754	     -0.12250441	     -0.77585226	      4.15088043	    -14.88321517	      2.64249751	     44.73567004	     71.43949767	      4.98310801	    -18.98329158	     26.61686674	     63.79626528	     82.68237639
      4.18750000	     -7.69874577	      0.98595884	     -0.39308624	      0.36784875	      0.97772380	     -0.05379234	      9.26241912	    -11.83414919	     -8.56917886	      3.07901248	      0.05373891	     -0.96239429	     -7.48473611	     -7.49999987	     12.34916953	     -8.82504354	     -7.53222497	      6.51545085	      0.11371607	     -2.29610581	     -7.92091186	     -7.49999987	     -6.23966244	     -0.13463341	     -0.77702584	      4.21917136	    -14.79787110	      2.35880799	     44.97649170	     71.71808291	      5.19728365	    -18.97587903	     26.72793968	     63.83839938	     82.87325156
      4.19166670	     -7.78956298	      1.04008662	     -0.39112866	      0.36848330	      0.98281184	     -0.05380922	      9.05632107	    -11.81956065	     -8.59928342	      2.56366919	      0.04474447	     -1.10839220	     -7.42855798	     -7.49999987	     12.21201275	     -8.73323547	     -7.50094747	      6.08875340	      0.10626879	     -2.42820925	     -7.81864563	     -7.49999987	     -5.98479979	     -0.21206416	     -0.83744316	      4.31289521	    -14.72275805	      2.33242397	     45.00215974	     71.74912248	      5.25425734	    -18.95608655	     26.76879983	     63.77804798	     82.93217836
      4.19583330	     -7.79436833	      1.03692760	     -0.46307114	      0.36929354	      0.97891602	     -0.05375310	      8.83051459	    -11.76152566	     -8.35479016	      2.12980101	      0.03717204	     -1.38632845	     -7.76628196	     -7.49999987	     11.94673860	     -8.71396113	     -7.57494154	      5.64397664	      0.09850598	     -2.67560848	     -8.05872200	     -7.49999987	     -5.67672754	     -0.24968028	     -0.87560147	      4.68816710	    -14.55353859	      2.26180246	     44.17814494	     72.30342076	      5.48819661	    -18.80589940	     27.04684983	     63.18721781	     83.72470998
      4.20000000	     -7.60529871	      1.03836029	     -0.35536846	      0.36920081	      0.98231757	     -0.05258856	      8.27735921	    -11.73155711	     -8.67201395	      1.60347655	      0.02798595	     -1.37203203	     -7.22705046	     -7.49999987	     11.49760441	     -8.66296323	     -7.53805818	      5.19926188	      0.09074424	     -2.74455087	     -7.83730550	     -7.49999987	     -5.86734542	     -0.25941082	     -0.88329405	      4.59484401	    -14.53114682	      2.06172327	     44.83842054	     70.71284361	      5.93152635	    -18.82117804	     27.62432347	     63.04952194	     81.08300795
      4.20416670	     -7.48549771	      1.07709850	     -0.43507575	      0.37017974	      0.98379798	     -0.05185704	      7.90751558	    -11.69704830	     -8.39917771	      1.20627557	      0.02105348	     -1.51474331	     -7.30588252	     -7.49999987	     11.04453357	     -8.63317729	     -7.75477673	      4.67371731	      0.08157176	     -2.83891820	     -7.54843120	     -7.49999987	     -5.90712965	     -0.35546727	     -0.63456544	      4.56942025	    -14.52927468	      2.16268653	     45.03835791	     69.82950678	      6.50254994	    -18.94165682	     28.72048259	     62.88307044	     79.44648758
      4.20833330	     -7.57724152	      1.05768368	     -0.44289840	      0.37253730	      0.98018707	     -0.05430571	      7.80953259	    -11.67446477	     -8.40354824	      0.98164288	      0.01713290	     -1.50644693	     -7.29418574	     -7.49999987	     10.97971841	     -8.61711338	     -7.80011201	      4.48218499	      0.07822889	     -2.78660599	     -7.55853624	     -7.49999987	     -5.75020807	     -0.32696547	     -0.66482992	      4.74883403	    -14.52668188	      2.13349011	     45.08285151	     69.84586201	      6.62719196	    -18.82230990	     28.72379090	     62.90226336	     79.48083023
